<?xml version="1.0" standalone="no"?>
<!DOCTYPE svg PUBLIC "-//W3C//DTD SVG 20010904//EN"
 "http://www.w3.org/TR/2001/REC-SVG-20010904/DTD/svg10.dtd">
<svg version="1.0" xmlns="http://www.w3.org/2000/svg"
 width="202.000000pt" height="264.000000pt" viewBox="0 0 202.000000 264.000000"
 preserveAspectRatio="xMidYMid meet">
<metadata>
Created by potrace 1.10, written by Peter Selinger 2001-2011
</metadata>
<g transform="translate(0.000000,264.000000) scale(0.100000,-0.100000)"
fill="#000000" stroke="none">
<path d="M716 2590 c-52 -48 -98 -144 -104 -218 -4 -44 -9 -56 -33 -73 l-29
-20 0 41 c0 25 -4 39 -10 35 -5 -3 -10 -25 -10 -49 0 -29 -6 -48 -19 -60 -18
-17 -20 -16 -34 26 -13 36 -16 39 -16 16 -1 -15 3 -38 9 -52 7 -20 5 -33 -10
-59 -31 -53 -35 -138 -11 -237 19 -77 19 -86 5 -108 -18 -27 -21 -27 -129 12
-38 14 -86 25 -105 25 -28 0 -18 -5 45 -23 90 -26 178 -60 209 -81 19 -14 16
-15 -38 -15 -58 0 -59 0 -41 20 10 11 13 20 7 20 -6 0 -17 -9 -24 -19 -10 -15
-35 -22 -98 -31 -89 -12 -240 -57 -240 -71 0 -4 25 1 56 11 60 21 200 50 240
50 18 0 24 -6 24 -20 0 -54 74 -132 176 -187 53 -29 56 -31 36 -42 -26 -14
-83 -93 -192 -266 -87 -137 -134 -195 -159 -195 -9 0 -29 -9 -46 -20 -22 -14
-47 -20 -92 -20 -59 0 -63 -2 -69 -25 -4 -17 -1 -32 10 -44 20 -22 20 -31 1
-31 -23 0 -29 -27 -12 -54 22 -33 69 -39 162 -21 l77 14 41 -34 c45 -38 71
-43 105 -19 27 19 28 36 2 59 -28 26 -27 81 3 96 27 14 154 109 183 137 l22
21 7 -122 c8 -145 27 -238 59 -291 22 -36 22 -41 10 -110 -18 -104 -51 -231
-72 -279 -16 -36 -26 -45 -68 -59 -27 -9 -70 -31 -96 -47 -40 -25 -48 -36 -48
-60 0 -35 9 -42 70 -54 93 -18 129 -18 211 -3 97 18 127 41 134 101 4 34 15
50 74 105 62 58 148 119 192 135 11 4 57 -24 135 -83 134 -100 159 -125 151
-146 -9 -23 11 -69 36 -87 13 -9 60 -29 105 -43 97 -31 185 -33 252 -8 41 16
45 21 48 54 3 31 -2 40 -36 69 -23 19 -82 49 -138 70 -87 32 -101 40 -116 70
-16 31 -37 139 -53 267 l-7 52 29 0 c40 0 116 23 200 59 87 38 177 42 272 12
63 -19 78 -16 39 8 -26 16 -85 24 -183 25 -59 1 -84 -5 -160 -37 -50 -22 -115
-41 -146 -44 -54 -5 -56 -4 -61 20 -5 24 -3 25 66 29 50 4 92 14 143 36 85 38
138 41 224 12 67 -23 92 -20 36 4 -56 23 -145 38 -180 30 -17 -3 -56 -17 -85
-30 -62 -27 -146 -44 -184 -37 -19 4 -30 14 -38 37 -10 28 -8 33 12 46 12 8
37 27 54 42 38 33 48 34 114 8 64 -25 112 -26 133 -2 22 24 21 38 -3 55 -20
14 -20 15 9 20 70 14 57 97 -16 97 -21 0 -57 12 -87 29 -28 15 -68 33 -88 40
-28 9 -43 24 -66 64 -77 135 -252 331 -330 368 l-34 16 34 21 c18 11 49 37 67
56 27 28 43 36 70 36 82 0 224 100 306 214 54 76 97 168 120 257 25 93 17 264
-15 337 -24 56 -75 108 -116 118 -71 18 -174 -26 -308 -129 l-58 -46 -42 16
c-53 21 -193 113 -230 152 -34 36 -52 41 -36 10 17 -30 82 -100 88 -94 3 3 -5
17 -19 32 -13 14 4 3 39 -24 35 -28 90 -64 123 -80 l60 -30 -41 -27 c-22 -14
-40 -29 -40 -32 0 -8 14 1 140 92 183 131 271 165 340 129 35 -18 84 -80 75
-94 -3 -6 2 -22 12 -37 24 -38 29 -178 9 -274 -24 -117 -96 -252 -175 -331
-36 -36 -87 -78 -112 -92 -51 -30 -144 -53 -135 -33 52 116 58 141 54 213 l-3
73 26 0 c33 0 74 32 95 73 l17 31 -32 -27 c-56 -47 -120 -28 -137 40 -10 40
12 160 41 218 37 76 79 121 147 154 72 36 101 38 147 10 18 -11 36 -18 38 -15
11 11 -64 46 -97 46 -87 0 -205 -90 -253 -193 -37 -76 -55 -194 -37 -237 16
-40 52 -63 93 -62 31 1 31 0 12 -14 -13 -11 -34 -14 -63 -11 -41 4 -42 4 -26
-14 27 -30 16 -158 -20 -229 -59 -117 -146 -194 -220 -195 l-41 0 20 40 c10
21 19 56 20 77 0 31 4 38 20 39 13 1 9 4 -10 8 -16 4 -59 1 -94 -7 -65 -15
-111 -7 -111 19 0 8 34 10 121 7 80 -3 113 -1 97 5 -12 5 -69 10 -125 11 -90
1 -103 3 -103 18 0 11 13 21 38 28 34 10 224 44 297 53 24 3 22 4 -11 6 -46 1
-206 -25 -271 -44 -24 -7 -43 -9 -43 -5 0 11 69 70 82 70 6 0 9 3 5 6 -3 4
-22 -3 -41 -14 l-34 -20 33 73 c38 83 75 196 75 229 0 12 -11 37 -25 56 -43
58 -32 120 20 120 45 0 59 -20 53 -81 -3 -29 -1 -46 4 -41 5 5 9 30 10 57 1
60 -27 90 -75 79 -27 -6 -28 -5 -17 18 11 22 10 22 -4 3 -8 -11 -23 -29 -33
-39 -10 -11 -12 -16 -6 -12 9 5 12 -6 12 -44 -2 -53 -8 -60 -33 -34 -22 21
-29 57 -23 110 3 33 2 43 -6 35 -16 -16 -12 -117 5 -143 15 -22 13 -26 -28
-71 -57 -64 -84 -138 -83 -225 l2 -67 7 78 c10 102 55 197 111 234 34 23 43
24 66 14 25 -11 25 -14 21 -74 -7 -73 -89 -273 -116 -280 -15 -4 -15 -5 1 -6
31 -2 14 -34 -39 -69 -17 -11 -17 -11 3 -2 29 13 33 13 33 -5 0 -9 -10 -15
-22 -16 -21 -1 -21 -2 -3 -6 33 -8 40 -21 21 -42 -31 -34 -144 -48 -162 -20
-2 5 -24 6 -48 3 -76 -11 -136 34 -136 101 0 33 41 59 76 51 l27 -7 -22 -15
c-27 -19 -27 -35 2 -62 30 -28 39 -28 88 4 30 19 40 31 36 44 -5 20 -3 21 85
36 33 5 39 11 48 43 14 49 13 74 -4 96 -12 16 -16 17 -30 6 -8 -7 -18 -29 -21
-50 -15 -89 -15 -89 -45 -93 -16 -3 -32 0 -34 6 -2 6 -5 3 -5 -8 -1 -14 -6
-17 -23 -12 -13 3 -32 6 -43 6 -43 1 -47 12 -25 81 23 71 36 192 26 233 -3 14
-19 38 -35 52 -16 14 -35 40 -42 56 -11 27 -10 32 6 44 26 19 41 17 65 -8 11
-12 20 -17 20 -11 0 7 -11 20 -25 31 l-24 19 27 13 c114 53 268 84 385 78 42
-2 74 -1 71 1 -10 11 -117 44 -194 61 -47 10 -72 19 -57 19 40 1 176 -28 209
-45 15 -8 30 -14 34 -14 14 0 -48 43 -64 45 -81 8 -90 15 -123 87 -18 38 -40
73 -50 79 -38 20 -78 10 -123 -31z m147 -43 c16 -32 27 -60 25 -62 -2 -2 -37
-5 -77 -6 -41 -1 -88 -6 -105 -10 -24 -6 -16 -8 32 -6 34 1 62 -1 62 -4 0 -4
25 -10 55 -14 37 -4 58 -12 64 -24 8 -15 1 -18 -64 -28 -62 -10 -138 -31 -209
-59 -18 -7 -19 -4 -12 47 9 72 48 154 92 196 30 28 43 34 73 31 33 -3 38 -8
64 -61z m122 -132 l30 -14 -39 2 c-22 1 -41 8 -44 15 -5 16 15 15 53 -3z
m-415 -251 c0 -12 -30 -1 -48 19 -20 22 -21 24 -6 46 l16 23 19 -42 c11 -23
19 -44 19 -46z m-31 -11 c2 -1 -4 -18 -13 -38 -34 -72 -39 -188 -11 -276 4
-11 -1 -29 -12 -43 -17 -21 -22 -22 -41 -12 l-23 12 21 19 c24 22 25 56 4 139
-19 73 -14 174 11 212 16 25 17 25 38 7 12 -10 24 -19 26 -20z m82 -45 c9 -33
8 -62 -2 -128 -10 -64 -14 -78 -18 -56 -14 70 -55 24 -49 -55 4 -63 -15 -66
-31 -5 -31 126 8 286 70 286 13 0 22 -12 30 -42z m196 -238 c1 -11 -2 -20 -5
-20 -4 0 -8 9 -9 20 -1 11 2 20 5 20 4 0 8 -9 9 -20z m-142 -100 c-3 -5 -24
-10 -46 -10 -21 0 -39 5 -39 10 0 6 21 10 46 10 27 0 43 -4 39 -10z m-185 -44
c0 -7 8 -24 18 -37 11 -13 24 -46 31 -72 6 -27 19 -60 29 -74 l16 -26 -43 24
c-91 51 -161 128 -161 179 0 18 6 20 55 20 40 0 55 -4 55 -14z m560 -83 c0
-46 -32 -118 -67 -155 -27 -29 -50 -38 -37 -15 4 6 -11 -4 -32 -24 -80 -75
-118 -73 -193 8 -24 27 -38 40 -31 31 16 -23 6 -23 -45 2 -42 20 -78 69 -95
131 l-9 30 37 -7 c20 -4 45 -8 55 -9 25 -2 52 -32 95 -105 45 -78 77 -95 120
-64 41 31 69 79 83 139 11 50 15 54 48 63 66 18 71 16 71 -25z m-130 -6 c0
-15 -33 -36 -56 -37 -29 0 -69 -33 -84 -70 -14 -35 -13 -35 -62 50 l-26 45 62
0 c47 0 68 5 91 21 23 18 34 20 52 11 13 -6 23 -15 23 -20z m-15 -73 c-23 -55
-63 -94 -97 -94 -21 0 -28 5 -28 19 0 28 44 86 66 86 11 1 30 8 44 18 32 22
34 17 15 -29z m245 -81 c92 -46 254 -225 337 -373 15 -28 33 -50 39 -50 6 0
45 -16 85 -35 67 -33 70 -35 34 -30 -29 4 -36 3 -25 -4 8 -6 45 -11 83 -11 65
0 67 -1 67 -25 0 -41 -69 -57 -135 -30 -14 5 -17 5 -10 -2 6 -6 32 -18 58 -28
55 -21 64 -30 47 -50 -17 -21 -70 -19 -130 5 -28 11 -55 20 -59 20 -5 0 -33
-18 -62 -40 -36 -27 -62 -40 -79 -38 -32 4 -38 33 -12 67 11 15 22 47 23 71 4
42 2 45 -43 79 -56 43 -318 194 -325 187 -3 -2 16 -16 41 -31 35 -20 51 -39
70 -81 16 -35 56 -87 111 -144 61 -64 85 -95 85 -114 0 -16 9 -31 23 -41 32
-21 52 -90 82 -284 17 -113 33 -182 52 -223 14 -32 29 -55 32 -49 8 13 173
-51 217 -84 41 -32 43 -68 5 -93 -23 -15 -23 -15 -17 4 11 37 -54 72 -99 54
-15 -7 -10 -9 21 -9 64 -1 87 -50 33 -69 -25 -10 -122 2 -195 23 -88 25 -150
83 -114 105 37 23 -259 258 -345 274 l-30 6 28 -13 28 -13 -23 -11 c-37 -17
-128 -89 -190 -150 -48 -46 -58 -62 -58 -90 0 -63 -51 -89 -195 -100 -67 -5
-83 -3 -94 11 -18 21 -1 42 54 67 22 11 29 16 15 13 -46 -11 -75 -29 -85 -52
-14 -33 -75 -27 -75 7 0 28 40 58 124 94 42 19 77 37 76 41 0 3 6 22 14 41 17
39 61 216 72 283 l7 42 51 -48 c103 -96 185 -125 279 -98 100 29 150 95 150
196 0 46 -7 69 -40 130 -22 41 -74 136 -114 211 -41 75 -92 173 -113 217 -55
112 -72 116 -116 22 -13 -27 -29 -50 -36 -50 -7 0 -26 25 -44 56 -17 31 -40
59 -51 61 -13 4 -18 11 -15 20 12 29 18 63 13 63 -3 0 -14 -25 -23 -55 -10
-30 -22 -55 -27 -55 -10 0 -5 38 9 74 5 13 4 17 -4 12 -18 -11 -26 -77 -13
-98 6 -10 10 -22 7 -26 -2 -4 -7 -36 -10 -72 -6 -61 -10 -67 -54 -109 -62 -58
-183 -143 -197 -138 -17 7 -4 -75 16 -102 15 -18 16 -27 8 -37 -19 -23 -56
-16 -92 16 -38 33 -55 35 -138 18 -70 -14 -139 1 -139 31 0 16 10 19 60 23 33
2 66 10 72 16 9 9 4 9 -23 2 -62 -18 -78 -12 -36 14 53 33 59 42 12 18 -45
-23 -75 -15 -75 18 0 17 7 20 50 20 60 0 161 43 202 87 15 15 80 109 146 209
68 104 133 191 152 204 l32 23 52 -18 c28 -10 68 -33 89 -52 45 -40 92 -44
134 -10 15 12 39 28 51 35 22 12 23 12 17 -10 -4 -14 3 -8 18 16 45 71 92 82
177 39z m-443 -224 c62 -97 77 -100 118 -19 14 27 32 50 40 50 10 0 45 -61 95
-162 43 -90 103 -203 133 -253 64 -109 87 -164 87 -212 0 -118 -77 -193 -199
-193 -89 1 -206 80 -272 183 -59 95 -74 173 -74 402 0 244 17 291 72 204z
m530 -185 c153 -91 163 -100 159 -142 -4 -36 -14 -72 -22 -72 -14 0 -186 184
-203 218 -12 23 -19 42 -17 42 2 0 40 -21 83 -46z"/>
</g>
</svg>
