<?xml version="1.0" standalone="no"?>
<!DOCTYPE svg PUBLIC "-//W3C//DTD SVG 20010904//EN"
 "http://www.w3.org/TR/2001/REC-SVG-20010904/DTD/svg10.dtd">
<svg version="1.0" xmlns="http://www.w3.org/2000/svg"
 width="512.000000pt" height="512.000000pt" viewBox="0 0 512.000000 512.000000"
 preserveAspectRatio="xMidYMid meet">
<metadata>
Created by potrace 1.14, written by Peter Selinger 2001-2017
</metadata>
<g transform="translate(0.000000,512.000000) scale(0.100000,-0.100000)"
fill="#000000" stroke="none">
<path d="M2364 5053 c-8 -6 -12 -62 -12 -179 l0 -171 167 0 c95 0 217 -7 287
-17 1123 -150 1924 -1147 1831 -2276 -28 -343 -148 -688 -338 -980 -198 -303
-519 -586 -836 -737 l-93 -45 0 -189 0 -190 23 6 c46 15 205 85 282 126 115
61 221 128 330 209 129 95 142 106 282 247 280 282 492 636 607 1015 15 48 29
95 31 105 2 10 10 50 19 88 20 95 25 121 32 180 3 28 8 61 11 75 10 47 11 455
1 520 -5 36 -11 83 -13 105 -8 70 -36 196 -71 323 -214 767 -811 1398 -1565
1656 -102 35 -264 80 -330 91 -159 28 -252 37 -429 41 -113 2 -210 1 -216 -3z"/>
<path d="M1595 4876 c-420 -174 -779 -452 -1047 -812 -231 -311 -406 -720
-453 -1062 -3 -20 -7 -46 -10 -57 -27 -134 -27 -553 0 -715 3 -19 11 -60 16
-90 6 -30 13 -67 15 -83 11 -60 75 -269 110 -358 127 -325 311 -606 559 -854
381 -381 878 -631 1395 -701 19 -2 51 -7 70 -10 19 -3 131 -8 248 -11 l213 -5
-1 378 c0 209 -1 391 0 406 0 25 4 27 73 38 97 17 94 16 163 34 254 66 497
219 642 405 195 248 258 570 186 945 -38 198 -159 499 -300 746 -84 147 -284
438 -392 569 -92 111 -151 182 -216 256 -83 95 -63 73 -215 233 l-123 131 -27
-32 c-14 -17 -55 -61 -90 -97 -186 -188 -452 -507 -609 -727 -274 -386 -459
-777 -517 -1091 -3 -15 -7 -38 -10 -52 -9 -43 -18 -152 -18 -220 -2 -434 213
-777 608 -972 114 -57 278 -109 387 -123 26 -4 59 -10 74 -14 l26 -7 0 -204
c-1 -113 -1 -213 -1 -222 -1 -19 -38 -18 -181 8 -210 38 -383 95 -575 190
-154 76 -195 101 -340 210 -305 227 -556 557 -694 914 -36 91 -76 216 -86 268
-1 9 -8 35 -13 57 -6 22 -13 62 -17 89 -3 27 -8 53 -10 56 -7 11 -19 205 -19
295 0 392 104 768 302 1095 213 352 528 639 889 813 l83 39 0 189 c0 104 -3
189 -7 189 -5 0 -44 -15 -88 -34z m757 -1548 c0 -117 -1 -249 -1 -293 l-1 -80
-129 129 -130 129 25 36 c38 57 229 299 232 295 2 -1 4 -98 4 -216z m456 100
c49 -62 105 -136 125 -164 l36 -50 -129 -129 -130 -130 0 175 c-1 96 -2 228
-3 293 -1 64 1 117 5 117 3 0 46 -51 96 -112z m-456 -1228 c0 -138 -2 -253 -4
-255 -3 -3 -572 560 -626 620 -5 4 90 204 135 283 l35 64 230 -230 230 -230 0
-252z m916 522 l76 -153 -317 -317 -317 -318 -1 131 c0 71 0 188 1 260 l0 129
228 228 c205 205 228 226 240 210 8 -9 48 -86 90 -170z m-916 -1363 c0 -38 -2
-72 -5 -75 -8 -9 -126 16 -207 43 -141 47 -248 111 -343 205 -132 130 -197
301 -192 509 1 57 3 110 4 117 0 7 168 -154 372 -358 l371 -371 0 -70z m1103
656 c-3 -132 -5 -144 -35 -230 -44 -127 -125 -240 -232 -320 -111 -83 -290
-157 -435 -180 l-43 -7 -1 39 c-3 120 -34 79 369 483 272 272 369 363 373 351
4 -9 5 -70 4 -136z"/>
</g>
</svg>
