<?xml version="1.0" standalone="no"?>
<!DOCTYPE svg PUBLIC "-//W3C//DTD SVG 20010904//EN"
 "http://www.w3.org/TR/2001/REC-SVG-20010904/DTD/svg10.dtd">
<svg version="1.0" xmlns="http://www.w3.org/2000/svg"
 width="264.000000pt" height="264.000000pt" viewBox="0 0 264.000000 264.000000"
 preserveAspectRatio="xMidYMid meet">
<metadata>
Created by potrace 1.11, written by Peter Selinger 2001-2013
</metadata>
<g transform="translate(0.000000,264.000000) scale(0.100000,-0.100000)"
fill="#000000" stroke="none">
<path d="M1054 2621 c-64 -39 -118 -135 -135 -239 -10 -58 -16 -72 -35 -81
-23 -10 -24 -9 -24 25 0 21 -4 33 -10 29 -5 -3 -10 -25 -10 -47 0 -27 -6 -45
-17 -54 -16 -11 -20 -9 -35 24 l-17 37 0 -35 c0 -19 3 -41 8 -49 6 -9 2 -28
-12 -55 -28 -53 -33 -144 -13 -222 21 -80 20 -107 -2 -127 -17 -15 -22 -14
-81 9 -35 14 -89 28 -120 30 l-56 4 62 -18 c34 -11 82 -27 107 -36 l45 -17
-19 -22 c-15 -16 -46 -25 -123 -39 -104 -17 -217 -52 -217 -68 0 -4 28 1 62
11 56 18 212 49 244 49 8 0 14 -11 14 -25 0 -57 55 -119 156 -176 30 -17 54
-33 54 -36 0 -3 -18 -25 -39 -50 -22 -24 -85 -115 -140 -201 -55 -86 -112
-169 -128 -183 -46 -43 -113 -72 -183 -78 -62 -6 -65 -7 -68 -34 -2 -16 2 -35
8 -42 10 -12 9 -16 -4 -21 -20 -8 -21 -57 -3 -73 25 -20 79 -24 163 -11 l85
13 32 -31 c34 -33 72 -41 108 -22 25 14 24 52 -1 75 -11 10 -20 30 -20 44 1
21 12 33 56 60 31 18 82 55 113 81 l58 48 6 -126 c7 -137 25 -223 59 -283 20
-37 21 -39 4 -127 -20 -112 -58 -243 -78 -274 -8 -12 -38 -31 -65 -40 -63 -22
-114 -56 -132 -90 -14 -24 -14 -28 2 -46 32 -35 190 -50 297 -28 87 18 120 46
120 100 0 29 11 44 75 104 71 69 165 132 194 132 15 0 116 -71 218 -153 56
-44 61 -53 56 -78 -12 -61 44 -102 185 -138 97 -25 133 -26 192 -4 57 21 80
40 80 68 0 52 -61 95 -212 150 -92 33 -97 42 -122 210 -9 61 -18 122 -21 136
-4 25 -2 27 53 32 34 3 97 22 154 46 111 47 168 52 281 22 87 -23 82 -7 -14
42 -109 56 -178 60 -284 16 -50 -20 -103 -34 -142 -37 l-63 -4 -14 33 c-13 32
-13 33 23 57 20 13 46 33 58 44 21 20 21 20 78 -1 62 -23 134 -28 153 -9 18
18 15 55 -5 67 -16 9 -16 10 3 11 11 0 29 9 39 20 15 16 17 26 9 48 -8 22 -17
28 -54 33 -25 3 -79 22 -120 42 -41 21 -80 37 -87 37 -7 0 -13 4 -13 9 0 17
-118 188 -179 259 -56 65 -134 136 -179 162 -15 8 -14 11 8 26 14 10 42 34 62
55 31 30 47 37 87 41 64 6 141 53 222 133 188 186 260 499 161 695 -39 78 -80
103 -158 98 -73 -4 -141 -37 -245 -116 -71 -54 -73 -55 -108 -42 -51 18 -125
64 -203 126 -37 30 -70 54 -73 54 -9 0 14 -41 48 -83 l29 -38 -28 7 c-41 10
-40 9 -69 72 -47 102 -85 123 -151 83z m226 -205 c0 -2 -7 -6 -15 -10 -8 -3
-15 -1 -15 4 0 6 7 10 15 10 8 0 15 -2 15 -4z m362 -1405 c48 -33 53 -40 56
-76 5 -80 -10 -78 -101 14 -47 45 -95 101 -107 124 l-23 40 61 -33 c33 -19 84
-50 114 -69z"/>
</g>
</svg>
